<mxfile host="app.diagrams.net" modified="2023-12-28T07:35:33.875Z" agent="Mozilla/5.0 (Windows NT 10.0; Win64; x64) AppleWebKit/537.36 (KHTML, like Gecko) Chrome/120.0.0.0 Safari/537.36" etag="q200E8gpiNE4sdGk6HYc" version="22.1.15" type="github">
  <diagram name="第 1 页" id="0hUL2M-2vLGxXfTMVPdV">
    <mxGraphModel dx="1302" dy="675" grid="1" gridSize="15" guides="1" tooltips="1" connect="1" arrows="1" fold="1" page="1" pageScale="1" pageWidth="1654" pageHeight="2336" math="0" shadow="0">
      <root>
        <mxCell id="0" />
        <mxCell id="1" parent="0" />
        <mxCell id="h8Ty44yPj9Jnduj1fUJp-1" value="" style="html=1;overflow=block;blockSpacing=1;whiteSpace=wrap;fontSize=13;spacing=3.8;strokeColor=#3a414a;strokeOpacity=100;rounded=1;absoluteArcSize=1;arcSize=9;strokeWidth=0.8;lucidId=jEi01-_xF6Bx;" vertex="1" parent="1">
          <mxGeometry x="540" y="240" width="480" height="360" as="geometry" />
        </mxCell>
        <mxCell id="h8Ty44yPj9Jnduj1fUJp-2" value="" style="html=1;overflow=block;blockSpacing=1;whiteSpace=wrap;fontSize=13;spacing=0;strokeColor=#4c535d;strokeOpacity=100;rounded=1;absoluteArcSize=1;arcSize=9;rotation=-270;strokeWidth=0.8;lucidId=GGi08Mpgi-kJ;" vertex="1" parent="1">
          <mxGeometry x="420" y="420" width="360" height="1" as="geometry" />
        </mxCell>
        <mxCell id="h8Ty44yPj9Jnduj1fUJp-3" value="" style="html=1;overflow=block;blockSpacing=1;whiteSpace=wrap;fontSize=13;spacing=0;strokeColor=#3a414a;strokeOpacity=100;rounded=1;absoluteArcSize=1;arcSize=9;rotation=-270;strokeWidth=0.8;lucidId=9Gi06TaQGskj;" vertex="1" parent="1">
          <mxGeometry x="480" y="420" width="360" height="1" as="geometry" />
        </mxCell>
        <mxCell id="h8Ty44yPj9Jnduj1fUJp-4" value="" style="html=1;overflow=block;blockSpacing=1;whiteSpace=wrap;fontSize=13;spacing=0;strokeColor=#3a414a;strokeOpacity=100;rounded=1;absoluteArcSize=1;arcSize=9;strokeWidth=0.8;lucidId=pHi0_KK7AGBP;" vertex="1" parent="1">
          <mxGeometry x="660" y="480" width="300" height="1" as="geometry" />
        </mxCell>
        <mxCell id="h8Ty44yPj9Jnduj1fUJp-5" value="" style="html=1;overflow=block;blockSpacing=1;whiteSpace=wrap;fontSize=13;spacing=0;strokeColor=#3a414a;strokeOpacity=100;rounded=1;absoluteArcSize=1;arcSize=9;rotation=-270;strokeWidth=0.8;lucidId=jIi0ABCT3JBj;" vertex="1" parent="1">
          <mxGeometry x="780" y="420" width="360" height="1" as="geometry" />
        </mxCell>
        <mxCell id="h8Ty44yPj9Jnduj1fUJp-6" value="" style="html=1;overflow=block;blockSpacing=1;whiteSpace=wrap;fontSize=13;spacing=0;strokeColor=#3a414a;strokeOpacity=100;rounded=1;absoluteArcSize=1;arcSize=9;rotation=-270;strokeWidth=0.8;lucidId=IIi0kp2o7ab.;" vertex="1" parent="1">
          <mxGeometry x="840" y="540" width="120" height="1" as="geometry" />
        </mxCell>
        <mxCell id="h8Ty44yPj9Jnduj1fUJp-7" value="" style="html=1;overflow=block;blockSpacing=1;whiteSpace=wrap;fontSize=13;spacing=0;strokeColor=#3a414a;strokeOpacity=100;rounded=1;absoluteArcSize=1;arcSize=9;rotation=-270;strokeWidth=0.8;lucidId=XIi03KQC-35q;" vertex="1" parent="1">
          <mxGeometry x="780" y="540" width="120" height="1" as="geometry" />
        </mxCell>
        <mxCell id="h8Ty44yPj9Jnduj1fUJp-8" value="" style="html=1;overflow=block;blockSpacing=1;whiteSpace=wrap;fontSize=13;spacing=0;strokeColor=#3a414a;strokeOpacity=100;rounded=1;absoluteArcSize=1;arcSize=9;rotation=-270;strokeWidth=0.8;lucidId=3Ii09AHKtTk0;" vertex="1" parent="1">
          <mxGeometry x="720" y="540" width="120" height="1" as="geometry" />
        </mxCell>
        <mxCell id="h8Ty44yPj9Jnduj1fUJp-9" value="" style="html=1;overflow=block;blockSpacing=1;whiteSpace=wrap;fontSize=13;spacing=0;strokeColor=#3a414a;strokeOpacity=100;rounded=1;absoluteArcSize=1;arcSize=9;strokeWidth=0.8;lucidId=dJi0xmede7M8;" vertex="1" parent="1">
          <mxGeometry x="660" y="555" width="120" height="1" as="geometry" />
        </mxCell>
        <mxCell id="h8Ty44yPj9Jnduj1fUJp-10" value="" style="html=1;overflow=block;blockSpacing=1;whiteSpace=wrap;fontSize=13;spacing=0;strokeColor=#3a414a;strokeOpacity=100;rounded=1;absoluteArcSize=1;arcSize=9;strokeWidth=0.8;lucidId=pJi0sJt_oInW;" vertex="1" parent="1">
          <mxGeometry x="661" y="517" width="120" height="1" as="geometry" />
        </mxCell>
        <mxCell id="h8Ty44yPj9Jnduj1fUJp-11" value="" style="html=1;overflow=block;blockSpacing=1;whiteSpace=wrap;fontSize=13;spacing=0;strokeColor=#3a414a;strokeOpacity=100;rounded=1;absoluteArcSize=1;arcSize=9;strokeWidth=0.8;lucidId=CJi0dUp6mxQU;" vertex="1" parent="1">
          <mxGeometry x="661" y="390" width="299" height="1" as="geometry" />
        </mxCell>
        <mxCell id="h8Ty44yPj9Jnduj1fUJp-12" value="" style="html=1;overflow=block;blockSpacing=1;whiteSpace=wrap;fontSize=13;spacing=0;strokeColor=#3a414a;strokeOpacity=100;rounded=1;absoluteArcSize=1;arcSize=9;rotation=-270;strokeWidth=0.8;lucidId=.Ji0g_z8zu6y;" vertex="1" parent="1">
          <mxGeometry x="826" y="315" width="150" height="1" as="geometry" />
        </mxCell>
        <mxCell id="h8Ty44yPj9Jnduj1fUJp-13" value="" style="html=1;overflow=block;blockSpacing=1;whiteSpace=wrap;fontSize=13;spacing=0;strokeColor=#3a414a;strokeOpacity=100;rounded=1;absoluteArcSize=1;arcSize=9;rotation=-270;strokeWidth=0.8;lucidId=~Ji0u-Yy-_38;" vertex="1" parent="1">
          <mxGeometry x="766" y="315" width="150" height="1" as="geometry" />
        </mxCell>
        <mxCell id="h8Ty44yPj9Jnduj1fUJp-14" value="" style="html=1;overflow=block;blockSpacing=1;whiteSpace=wrap;fontSize=13;spacing=0;strokeColor=#3a414a;strokeOpacity=100;rounded=1;absoluteArcSize=1;arcSize=9;strokeWidth=0.8;lucidId=tKi029dmTjMB;" vertex="1" parent="1">
          <mxGeometry x="661" y="345" width="179" height="1" as="geometry" />
        </mxCell>
        <mxCell id="h8Ty44yPj9Jnduj1fUJp-15" value="" style="html=1;overflow=block;blockSpacing=1;whiteSpace=wrap;fontSize=13;spacing=0;strokeColor=#3a414a;strokeOpacity=100;rounded=1;absoluteArcSize=1;arcSize=9;rotation=-270;strokeWidth=0.8;lucidId=IKi0VMVsiuCA;" vertex="1" parent="1">
          <mxGeometry x="668" y="292" width="105" height="1" as="geometry" />
        </mxCell>
        <mxCell id="h8Ty44yPj9Jnduj1fUJp-16" value="" style="html=1;overflow=block;blockSpacing=1;whiteSpace=wrap;fontSize=13;spacing=0;strokeColor=#3a414a;strokeOpacity=100;rounded=1;absoluteArcSize=1;arcSize=9;rotation=-270;strokeWidth=0.8;lucidId=TKi0TNewPdmN;" vertex="1" parent="1">
          <mxGeometry x="727" y="292" width="105" height="1" as="geometry" />
        </mxCell>
        <mxCell id="h8Ty44yPj9Jnduj1fUJp-17" value="" style="html=1;overflow=block;blockSpacing=1;whiteSpace=wrap;fontSize=16.7;fontFamily=Liberation Serif;fontColor=#3a414a;spacing=9;strokeColor=#3a414a;strokeOpacity=100;rounded=1;absoluteArcSize=1;arcSize=9;strokeWidth=0.8;lucidId=SLi04-iJL32n;" vertex="1" parent="1">
          <mxGeometry x="795" y="428" width="77" height="6" as="geometry" />
        </mxCell>
        <mxCell id="h8Ty44yPj9Jnduj1fUJp-18" value="开放格" style="html=1;overflow=block;blockSpacing=1;whiteSpace=wrap;fontSize=16.7;fontFamily=Liberation Serif;fontColor=#3a414a;spacing=3.8;strokeOpacity=0;fillOpacity=0;rounded=1;absoluteArcSize=1;arcSize=9;fillColor=#ffffff;strokeWidth=0.8;lucidId=wMi0a5nb7~Uo;" vertex="1" parent="1">
          <mxGeometry x="721" y="416" width="60" height="32" as="geometry" />
        </mxCell>
        <mxCell id="h8Ty44yPj9Jnduj1fUJp-19" value="玻璃" style="html=1;overflow=block;blockSpacing=1;whiteSpace=wrap;fontSize=16.7;fontFamily=Liberation Serif;fontColor=#3a414a;spacing=3.8;strokeOpacity=0;fillOpacity=0;rounded=1;absoluteArcSize=1;arcSize=9;fillColor=#ffffff;strokeWidth=0.8;lucidId=YMi0Ng7yW5L~;" vertex="1" parent="1">
          <mxGeometry x="555" y="397" width="30" height="45" as="geometry" />
        </mxCell>
        <mxCell id="h8Ty44yPj9Jnduj1fUJp-20" value="玻璃" style="html=1;overflow=block;blockSpacing=1;whiteSpace=wrap;fontSize=16.7;fontFamily=Liberation Serif;fontColor=#3a414a;spacing=3.8;strokeOpacity=0;fillOpacity=0;rounded=1;absoluteArcSize=1;arcSize=9;fillColor=#ffffff;strokeWidth=0.8;lucidId=ZMi0ydUcW1Ka;" vertex="1" parent="1">
          <mxGeometry x="618" y="397" width="30" height="45" as="geometry" />
        </mxCell>
        <mxCell id="h8Ty44yPj9Jnduj1fUJp-21" value="开放格" style="html=1;overflow=block;blockSpacing=1;whiteSpace=wrap;fontSize=16.7;fontFamily=Liberation Serif;fontColor=#3a414a;spacing=3.8;strokeOpacity=0;fillOpacity=0;rounded=1;absoluteArcSize=1;arcSize=9;fillColor=#ffffff;strokeWidth=0.8;lucidId=wNi0.tQglK~V;" vertex="1" parent="1">
          <mxGeometry x="719" y="352" width="60" height="32" as="geometry" />
        </mxCell>
        <mxCell id="h8Ty44yPj9Jnduj1fUJp-22" value="抽屉" style="html=1;overflow=block;blockSpacing=1;whiteSpace=wrap;fontSize=16.7;fontFamily=Liberation Serif;fontColor=#3a414a;spacing=3.8;strokeOpacity=0;fillOpacity=0;rounded=1;absoluteArcSize=1;arcSize=9;fillColor=#ffffff;strokeWidth=0.8;lucidId=DNi0NaYzkDp5;" vertex="1" parent="1">
          <mxGeometry x="691" y="485" width="59" height="32" as="geometry" />
        </mxCell>
        <mxCell id="h8Ty44yPj9Jnduj1fUJp-23" value="抽屉" style="html=1;overflow=block;blockSpacing=1;whiteSpace=wrap;fontSize=16.7;fontFamily=Liberation Serif;fontColor=#3a414a;spacing=3.8;strokeOpacity=0;fillOpacity=0;rounded=1;absoluteArcSize=1;arcSize=9;fillColor=#ffffff;strokeWidth=0.8;lucidId=QNi0hCo5XsVk;" vertex="1" parent="1">
          <mxGeometry x="691" y="523" width="59" height="32" as="geometry" />
        </mxCell>
        <mxCell id="h8Ty44yPj9Jnduj1fUJp-24" value="抽屉" style="html=1;overflow=block;blockSpacing=1;whiteSpace=wrap;fontSize=16.7;fontFamily=Liberation Serif;fontColor=#3a414a;spacing=3.8;strokeOpacity=0;fillOpacity=0;rounded=1;absoluteArcSize=1;arcSize=9;fillColor=#ffffff;strokeWidth=0.8;lucidId=VNi03hRZ3R9b;" vertex="1" parent="1">
          <mxGeometry x="690" y="568" width="59" height="32" as="geometry" />
        </mxCell>
        <mxCell id="h8Ty44yPj9Jnduj1fUJp-25" value="木门" style="html=1;overflow=block;blockSpacing=1;whiteSpace=wrap;fontSize=16.7;fontFamily=Liberation Serif;fontColor=#3a414a;spacing=3.8;strokeOpacity=0;fillOpacity=0;rounded=1;absoluteArcSize=1;arcSize=9;fillColor=#ffffff;strokeWidth=0.8;lucidId=oOi0-1tm124c;" vertex="1" parent="1">
          <mxGeometry x="672" y="259" width="36" height="68" as="geometry" />
        </mxCell>
        <mxCell id="h8Ty44yPj9Jnduj1fUJp-26" value="木门" style="html=1;overflow=block;blockSpacing=1;whiteSpace=wrap;fontSize=16.7;fontFamily=Liberation Serif;fontColor=#3a414a;spacing=3.8;strokeOpacity=0;fillOpacity=0;rounded=1;absoluteArcSize=1;arcSize=9;fillColor=#ffffff;strokeWidth=0.8;lucidId=0Oi0cIhKzK87;" vertex="1" parent="1">
          <mxGeometry x="731" y="259" width="36" height="68" as="geometry" />
        </mxCell>
        <mxCell id="h8Ty44yPj9Jnduj1fUJp-27" value="木门" style="html=1;overflow=block;blockSpacing=1;whiteSpace=wrap;fontSize=16.7;fontFamily=Liberation Serif;fontColor=#3a414a;spacing=3.8;strokeOpacity=0;fillOpacity=0;rounded=1;absoluteArcSize=1;arcSize=9;fillColor=#ffffff;strokeWidth=0.8;lucidId=3Oi0yuzJIRUg;" vertex="1" parent="1">
          <mxGeometry x="792" y="259" width="36" height="68" as="geometry" />
        </mxCell>
        <mxCell id="h8Ty44yPj9Jnduj1fUJp-28" value="木门" style="html=1;overflow=block;blockSpacing=1;whiteSpace=wrap;fontSize=16.7;fontFamily=Liberation Serif;fontColor=#3a414a;spacing=3.8;strokeOpacity=0;fillOpacity=0;rounded=1;absoluteArcSize=1;arcSize=9;fillColor=#ffffff;strokeWidth=0.8;lucidId=7Oi0QBY3zsmU;" vertex="1" parent="1">
          <mxGeometry x="853" y="259" width="36" height="68" as="geometry" />
        </mxCell>
        <mxCell id="h8Ty44yPj9Jnduj1fUJp-29" value="木门" style="html=1;overflow=block;blockSpacing=1;whiteSpace=wrap;fontSize=16.7;fontFamily=Liberation Serif;fontColor=#3a414a;spacing=3.8;strokeOpacity=0;fillOpacity=0;rounded=1;absoluteArcSize=1;arcSize=9;fillColor=#ffffff;strokeWidth=0.8;lucidId=_Oi0N1qLn8s8;" vertex="1" parent="1">
          <mxGeometry x="913" y="259" width="36" height="68" as="geometry" />
        </mxCell>
        <mxCell id="h8Ty44yPj9Jnduj1fUJp-30" value="木门" style="html=1;overflow=block;blockSpacing=1;whiteSpace=wrap;fontSize=16.7;fontFamily=Liberation Serif;fontColor=#3a414a;spacing=3.8;strokeOpacity=0;fillOpacity=0;rounded=1;absoluteArcSize=1;arcSize=9;fillColor=#ffffff;strokeWidth=0.8;lucidId=aPi0k1yPTDtP;" vertex="1" parent="1">
          <mxGeometry x="790" y="504" width="36" height="68" as="geometry" />
        </mxCell>
        <mxCell id="h8Ty44yPj9Jnduj1fUJp-31" value="木门" style="html=1;overflow=block;blockSpacing=1;whiteSpace=wrap;fontSize=16.7;fontFamily=Liberation Serif;fontColor=#3a414a;spacing=3.8;strokeOpacity=0;fillOpacity=0;rounded=1;absoluteArcSize=1;arcSize=9;fillColor=#ffffff;strokeWidth=0.8;lucidId=cPi0AP5BYbA6;" vertex="1" parent="1">
          <mxGeometry x="852" y="500" width="36" height="68" as="geometry" />
        </mxCell>
        <mxCell id="h8Ty44yPj9Jnduj1fUJp-32" value="木门" style="html=1;overflow=block;blockSpacing=1;whiteSpace=wrap;fontSize=16.7;fontFamily=Liberation Serif;fontColor=#3a414a;spacing=3.8;strokeOpacity=0;fillOpacity=0;rounded=1;absoluteArcSize=1;arcSize=9;fillColor=#ffffff;strokeWidth=0.8;lucidId=gPi0RkHJloOo;" vertex="1" parent="1">
          <mxGeometry x="913" y="500" width="36" height="68" as="geometry" />
        </mxCell>
        <mxCell id="h8Ty44yPj9Jnduj1fUJp-33" value="木门" style="html=1;overflow=block;blockSpacing=1;whiteSpace=wrap;fontSize=16.7;fontFamily=Liberation Serif;fontColor=#3a414a;spacing=3.8;strokeOpacity=0;fillOpacity=0;rounded=1;absoluteArcSize=1;arcSize=9;fillColor=#ffffff;strokeWidth=0.8;lucidId=jPi0uUfH4QKP;" vertex="1" parent="1">
          <mxGeometry x="971" y="391" width="36" height="68" as="geometry" />
        </mxCell>
        <mxCell id="h8Ty44yPj9Jnduj1fUJp-34" value="" style="html=1;overflow=block;blockSpacing=1;whiteSpace=wrap;fontSize=13;spacing=9;strokeColor=#3a414a;strokeOpacity=100;rounded=1;absoluteArcSize=1;arcSize=9;strokeWidth=0.8;lucidId=wXi03ys0hibm;" vertex="1" parent="1">
          <mxGeometry x="1140" y="240" width="480" height="360" as="geometry" />
        </mxCell>
        <mxCell id="h8Ty44yPj9Jnduj1fUJp-35" value="" style="html=1;overflow=block;blockSpacing=1;whiteSpace=wrap;fontSize=13;spacing=0;strokeColor=#3a414a;strokeOpacity=100;rounded=1;absoluteArcSize=1;arcSize=9;rotation=-270;strokeWidth=0.8;lucidId=pYi01Wcm_DJU;" vertex="1" parent="1">
          <mxGeometry x="1020" y="419" width="360" height="1" as="geometry" />
        </mxCell>
        <mxCell id="h8Ty44yPj9Jnduj1fUJp-36" value="" style="html=1;overflow=block;blockSpacing=1;whiteSpace=wrap;fontSize=13;spacing=0;strokeColor=#3a414a;strokeOpacity=100;rounded=1;absoluteArcSize=1;arcSize=9;rotation=-270;strokeWidth=0.8;lucidId=HYi0mSDJBLfM;" vertex="1" parent="1">
          <mxGeometry x="1380" y="419" width="360" height="1" as="geometry" />
        </mxCell>
        <mxCell id="h8Ty44yPj9Jnduj1fUJp-37" value="" style="html=1;overflow=block;blockSpacing=1;whiteSpace=wrap;fontSize=13;spacing=0;strokeColor=#3a414a;strokeOpacity=100;rounded=1;absoluteArcSize=1;arcSize=9;rotation=-270;strokeWidth=0.8;lucidId=TYi0H.dPuJqK;" vertex="1" parent="1">
          <mxGeometry x="1260" y="420" width="360" height="1" as="geometry" />
        </mxCell>
        <mxCell id="h8Ty44yPj9Jnduj1fUJp-38" value="" style="html=1;overflow=block;blockSpacing=1;whiteSpace=wrap;fontSize=13;spacing=0;strokeColor=#3a414a;strokeOpacity=100;rounded=1;absoluteArcSize=1;arcSize=9;rotation=-270;strokeWidth=0.8;lucidId=TYi0FkCOCjd8;" vertex="1" parent="1">
          <mxGeometry x="1320" y="419" width="360" height="1" as="geometry" />
        </mxCell>
        <mxCell id="h8Ty44yPj9Jnduj1fUJp-39" value="" style="html=1;overflow=block;blockSpacing=1;whiteSpace=wrap;fontSize=13;spacing=0;strokeColor=#3a414a;strokeOpacity=100;rounded=1;absoluteArcSize=1;arcSize=9;rotation=-270;strokeWidth=0.8;lucidId=9Zi0gIOHBx_o;" vertex="1" parent="1">
          <mxGeometry x="1095" y="419" width="360" height="1" as="geometry" />
        </mxCell>
        <mxCell id="h8Ty44yPj9Jnduj1fUJp-40" value="" style="html=1;overflow=block;blockSpacing=1;whiteSpace=wrap;fontSize=13;spacing=0;strokeColor=#3a414a;strokeOpacity=100;rounded=1;absoluteArcSize=1;arcSize=9;rotation=-270;strokeWidth=0.8;lucidId=e0i04zI7K4tB;" vertex="1" parent="1">
          <mxGeometry x="1286" y="312" width="142" height="1" as="geometry" />
        </mxCell>
        <mxCell id="h8Ty44yPj9Jnduj1fUJp-41" value="" style="html=1;overflow=block;blockSpacing=1;whiteSpace=wrap;fontSize=13;spacing=0;strokeColor=#3a414a;strokeOpacity=100;rounded=1;absoluteArcSize=1;arcSize=9;strokeWidth=0.8;lucidId=g0i0GwYR5VV3;" vertex="1" parent="1">
          <mxGeometry x="1201" y="479" width="239" height="1" as="geometry" />
        </mxCell>
        <mxCell id="h8Ty44yPj9Jnduj1fUJp-42" value="" style="html=1;overflow=block;blockSpacing=1;whiteSpace=wrap;fontSize=13;spacing=0;strokeColor=#3a414a;strokeOpacity=100;rounded=1;absoluteArcSize=1;arcSize=9;strokeWidth=0.8;lucidId=00i0r0cdF_fl;" vertex="1" parent="1">
          <mxGeometry x="1275" y="382" width="164" height="1" as="geometry" />
        </mxCell>
        <mxCell id="h8Ty44yPj9Jnduj1fUJp-43" value="" style="html=1;overflow=block;blockSpacing=1;whiteSpace=wrap;fontSize=13;spacing=0;strokeColor=#3a414a;strokeOpacity=100;rounded=1;absoluteArcSize=1;arcSize=9;rotation=-270;strokeWidth=0.8;lucidId=61i0wlTPoXCs;" vertex="1" parent="1">
          <mxGeometry x="1297" y="540" width="120" height="1" as="geometry" />
        </mxCell>
        <mxCell id="h8Ty44yPj9Jnduj1fUJp-44" value="" style="html=1;overflow=block;blockSpacing=1;whiteSpace=wrap;fontSize=13;spacing=0;strokeColor=#3a414a;strokeOpacity=100;rounded=1;absoluteArcSize=1;arcSize=9;strokeWidth=0.8;lucidId=X2i0GB5-I0CL;" vertex="1" parent="1">
          <mxGeometry x="1275" y="431" width="166" height="1" as="geometry" />
        </mxCell>
        <mxCell id="h8Ty44yPj9Jnduj1fUJp-45" value="木门" style="html=1;overflow=block;blockSpacing=1;whiteSpace=wrap;fontSize=16.7;fontFamily=Liberation Serif;fontColor=#3a414a;spacing=3.8;strokeOpacity=0;fillOpacity=0;rounded=1;absoluteArcSize=1;arcSize=9;fillColor=#ffffff;strokeWidth=0.8;lucidId=23i0FxjOXLHW;" vertex="1" parent="1">
          <mxGeometry x="1509" y="399" width="36" height="68" as="geometry" />
        </mxCell>
        <mxCell id="h8Ty44yPj9Jnduj1fUJp-46" value="木门" style="html=1;overflow=block;blockSpacing=1;whiteSpace=wrap;fontSize=16.7;fontFamily=Liberation Serif;fontColor=#3a414a;spacing=3.8;strokeOpacity=0;fillOpacity=0;rounded=1;absoluteArcSize=1;arcSize=9;fillColor=#ffffff;strokeWidth=0.8;lucidId=33i0lHx0hcYN;" vertex="1" parent="1">
          <mxGeometry x="1575" y="397" width="36" height="68" as="geometry" />
        </mxCell>
        <mxCell id="h8Ty44yPj9Jnduj1fUJp-47" value="木门" style="html=1;overflow=block;blockSpacing=1;whiteSpace=wrap;fontSize=16.7;fontFamily=Liberation Serif;fontColor=#3a414a;spacing=3.8;strokeOpacity=0;fillOpacity=0;rounded=1;absoluteArcSize=1;arcSize=9;fillColor=#ffffff;strokeWidth=0.8;lucidId=e4i0dogeUMoY;" vertex="1" parent="1">
          <mxGeometry x="1151" y="397" width="36" height="68" as="geometry" />
        </mxCell>
        <mxCell id="h8Ty44yPj9Jnduj1fUJp-48" value="木门" style="html=1;overflow=block;blockSpacing=1;whiteSpace=wrap;fontSize=16.7;fontFamily=Liberation Serif;fontColor=#3a414a;spacing=3.8;strokeOpacity=0;fillOpacity=0;rounded=1;absoluteArcSize=1;arcSize=9;fillColor=#ffffff;strokeWidth=0.8;lucidId=F4i0GxDi6p5B;" vertex="1" parent="1">
          <mxGeometry x="1302" y="273" width="36" height="68" as="geometry" />
        </mxCell>
        <mxCell id="h8Ty44yPj9Jnduj1fUJp-49" value="木门" style="html=1;overflow=block;blockSpacing=1;whiteSpace=wrap;fontSize=16.7;fontFamily=Liberation Serif;fontColor=#3a414a;spacing=3.8;strokeOpacity=0;fillOpacity=0;rounded=1;absoluteArcSize=1;arcSize=9;fillColor=#ffffff;strokeWidth=0.8;lucidId=J4i0gXuu4hpe;" vertex="1" parent="1">
          <mxGeometry x="1381" y="273" width="36" height="68" as="geometry" />
        </mxCell>
        <mxCell id="h8Ty44yPj9Jnduj1fUJp-50" value="木门" style="html=1;overflow=block;blockSpacing=1;whiteSpace=wrap;fontSize=16.7;fontFamily=Liberation Serif;fontColor=#3a414a;spacing=3.8;strokeOpacity=0;fillOpacity=0;rounded=1;absoluteArcSize=1;arcSize=9;fillColor=#ffffff;strokeWidth=0.8;lucidId=O4i04KpyYti-;" vertex="1" parent="1">
          <mxGeometry x="1301" y="511" width="36" height="68" as="geometry" />
        </mxCell>
        <mxCell id="h8Ty44yPj9Jnduj1fUJp-51" value="木门" style="html=1;overflow=block;blockSpacing=1;whiteSpace=wrap;fontSize=16.7;fontFamily=Liberation Serif;fontColor=#3a414a;spacing=3.8;strokeOpacity=0;fillOpacity=0;rounded=1;absoluteArcSize=1;arcSize=9;fillColor=#ffffff;strokeWidth=0.8;lucidId=Q4i0RmJRj~4-;" vertex="1" parent="1">
          <mxGeometry x="1381" y="506" width="36" height="68" as="geometry" />
        </mxCell>
        <mxCell id="h8Ty44yPj9Jnduj1fUJp-52" value="开放格" style="html=1;overflow=block;blockSpacing=1;whiteSpace=wrap;fontSize=16.7;fontFamily=Liberation Serif;fontColor=#3a414a;spacing=3.8;strokeOpacity=0;fillOpacity=0;rounded=1;absoluteArcSize=1;arcSize=9;fillColor=#ffffff;strokeWidth=0.8;lucidId=44i02NKUE6WC;" vertex="1" parent="1">
          <mxGeometry x="1210" y="367" width="60" height="32" as="geometry" />
        </mxCell>
        <mxCell id="h8Ty44yPj9Jnduj1fUJp-53" value="开放格" style="html=1;overflow=block;blockSpacing=1;whiteSpace=wrap;fontSize=16.7;fontFamily=Liberation Serif;fontColor=#3a414a;spacing=3.8;strokeOpacity=0;fillOpacity=0;rounded=1;absoluteArcSize=1;arcSize=9;fillColor=#ffffff;strokeWidth=0.8;lucidId=64i0MKdIgCoz;" vertex="1" parent="1">
          <mxGeometry x="1208" y="522" width="60" height="32" as="geometry" />
        </mxCell>
        <mxCell id="h8Ty44yPj9Jnduj1fUJp-54" value="书格" style="html=1;overflow=block;blockSpacing=1;whiteSpace=wrap;fontSize=16.7;fontFamily=Liberation Serif;fontColor=#3a414a;spacing=3.8;strokeOpacity=0;fillOpacity=0;rounded=1;absoluteArcSize=1;arcSize=9;fillColor=#ffffff;strokeWidth=0.8;lucidId=94i0RHY7x~cG;" vertex="1" parent="1">
          <mxGeometry x="1328" y="432" width="60" height="48" as="geometry" />
        </mxCell>
        <mxCell id="h8Ty44yPj9Jnduj1fUJp-55" value="玻璃" style="html=1;overflow=block;blockSpacing=1;whiteSpace=wrap;fontSize=16.7;fontFamily=Liberation Serif;fontColor=#3a414a;spacing=3.8;strokeOpacity=0;fillOpacity=0;rounded=1;absoluteArcSize=1;arcSize=9;fillColor=#ffffff;strokeWidth=0.8;lucidId=i5i03-JM4hYG;" vertex="1" parent="1">
          <mxGeometry x="1455" y="409" width="30" height="45" as="geometry" />
        </mxCell>
        <mxCell id="h8Ty44yPj9Jnduj1fUJp-56" value="" style="html=1;overflow=block;blockSpacing=1;whiteSpace=wrap;ellipse;fontSize=13;spacing=3.8;strokeColor=#3a414a;strokeOpacity=100;rounded=1;absoluteArcSize=1;arcSize=9;strokeWidth=0.8;lucidId=R5i0aFgvN-mq;" vertex="1" parent="1">
          <mxGeometry x="1233" y="578" width="10" height="10" as="geometry" />
        </mxCell>
        <mxCell id="h8Ty44yPj9Jnduj1fUJp-57" value="书格" style="html=1;overflow=block;blockSpacing=1;whiteSpace=wrap;fontSize=16.7;fontFamily=Liberation Serif;fontColor=#3a414a;spacing=3.8;strokeOpacity=0;fillOpacity=0;rounded=1;absoluteArcSize=1;arcSize=9;fillColor=#ffffff;strokeWidth=0.8;lucidId=-6i0bXHerErI;" vertex="1" parent="1">
          <mxGeometry x="1325" y="385" width="60" height="48" as="geometry" />
        </mxCell>
        <mxCell id="h8Ty44yPj9Jnduj1fUJp-58" value="餐边柜" style="html=1;overflow=block;blockSpacing=1;whiteSpace=wrap;fontSize=16.7;fontFamily=Liberation Serif;fontColor=#3a414a;spacing=3.8;strokeOpacity=0;fillOpacity=0;rounded=1;absoluteArcSize=1;arcSize=9;fillColor=#ffffff;strokeWidth=0.8;lucidId=A_i0d9Y~pL3e;" vertex="1" parent="1">
          <mxGeometry x="690" y="180" width="180" height="45" as="geometry" />
        </mxCell>
        <mxCell id="h8Ty44yPj9Jnduj1fUJp-59" value="展示柜" style="html=1;overflow=block;blockSpacing=1;whiteSpace=wrap;fontSize=16.7;fontFamily=Liberation Serif;fontColor=#3a414a;spacing=3.8;strokeOpacity=0;fillOpacity=0;rounded=1;absoluteArcSize=1;arcSize=9;fillColor=#ffffff;strokeWidth=0.8;lucidId=1_i0xvrjxDT6;" vertex="1" parent="1">
          <mxGeometry x="1290" y="180" width="180" height="45" as="geometry" />
        </mxCell>
        <mxCell id="h8Ty44yPj9Jnduj1fUJp-60" value="" style="html=1;overflow=block;blockSpacing=1;whiteSpace=wrap;fontSize=13;spacing=0;strokeColor=#3a414a;strokeOpacity=100;rounded=1;absoluteArcSize=1;arcSize=9;strokeWidth=0.8;lucidId=~ej0_mkQQ0V_;" vertex="1" parent="1">
          <mxGeometry x="1141" y="300" width="59" height="1" as="geometry" />
        </mxCell>
        <mxCell id="h8Ty44yPj9Jnduj1fUJp-61" value="监控格" style="html=1;overflow=block;blockSpacing=1;whiteSpace=wrap;fontSize=16.7;fontFamily=Liberation Serif;fontColor=#3a414a;spacing=3.8;strokeOpacity=0;fillOpacity=0;rounded=1;absoluteArcSize=1;arcSize=9;fillColor=#ffffff;strokeWidth=0.8;lucidId=ofj0eJ.LlK7k;" vertex="1" parent="1">
          <mxGeometry x="1139" y="259" width="60" height="32" as="geometry" />
        </mxCell>
        <mxCell id="h8Ty44yPj9Jnduj1fUJp-62" value="管线机" style="html=1;overflow=block;blockSpacing=1;whiteSpace=wrap;fontSize=16.7;fontFamily=Liberation Serif;fontColor=#3a414a;spacing=9;strokeColor=#3a414a;strokeOpacity=100;rounded=1;absoluteArcSize=1;arcSize=9;strokeWidth=0.8;lucidId=ZZj01xy9Xnap;" vertex="1" parent="1">
          <mxGeometry x="902" y="396" width="43" height="78" as="geometry" />
        </mxCell>
        <mxCell id="h8Ty44yPj9Jnduj1fUJp-63" value="" style="html=1;overflow=block;blockSpacing=1;whiteSpace=wrap;fontSize=13;spacing=3.8;strokeColor=#3a414a;strokeOpacity=100;rounded=1;absoluteArcSize=1;arcSize=9;strokeWidth=0.8;lucidId=78j0aa3CohmZ;" vertex="1" parent="1">
          <mxGeometry x="540" y="660" width="480" height="360" as="geometry" />
        </mxCell>
        <mxCell id="h8Ty44yPj9Jnduj1fUJp-64" value="" style="html=1;overflow=block;blockSpacing=1;whiteSpace=wrap;fontSize=13;spacing=0;strokeColor=#4c535d;strokeOpacity=100;rounded=1;absoluteArcSize=1;arcSize=9;rotation=-270;strokeWidth=0.8;lucidId=78j0znY7FxWN;" vertex="1" parent="1">
          <mxGeometry x="420" y="840" width="360" height="1" as="geometry" />
        </mxCell>
        <mxCell id="h8Ty44yPj9Jnduj1fUJp-65" value="" style="html=1;overflow=block;blockSpacing=1;whiteSpace=wrap;fontSize=13;spacing=0;strokeColor=#3a414a;strokeOpacity=100;rounded=1;absoluteArcSize=1;arcSize=9;rotation=-270;strokeWidth=0.8;lucidId=78j0HqFUy~2o;" vertex="1" parent="1">
          <mxGeometry x="480" y="840" width="360" height="1" as="geometry" />
        </mxCell>
        <mxCell id="h8Ty44yPj9Jnduj1fUJp-66" value="" style="html=1;overflow=block;blockSpacing=1;whiteSpace=wrap;fontSize=13;spacing=0;strokeColor=#3a414a;strokeOpacity=100;rounded=1;absoluteArcSize=1;arcSize=9;strokeWidth=0.8;lucidId=78j0aC8yOTyB;" vertex="1" parent="1">
          <mxGeometry x="660" y="900" width="300" height="1" as="geometry" />
        </mxCell>
        <mxCell id="h8Ty44yPj9Jnduj1fUJp-67" value="" style="html=1;overflow=block;blockSpacing=1;whiteSpace=wrap;fontSize=13;spacing=0;strokeColor=#3a414a;strokeOpacity=100;rounded=1;absoluteArcSize=1;arcSize=9;rotation=-270;strokeWidth=0.8;lucidId=78j0KuKO8~hy;" vertex="1" parent="1">
          <mxGeometry x="780" y="840" width="360" height="1" as="geometry" />
        </mxCell>
        <mxCell id="h8Ty44yPj9Jnduj1fUJp-68" value="" style="html=1;overflow=block;blockSpacing=1;whiteSpace=wrap;fontSize=13;spacing=0;strokeColor=#3a414a;strokeOpacity=100;rounded=1;absoluteArcSize=1;arcSize=9;rotation=-270;strokeWidth=0.8;lucidId=78j0DSnzvuh2;" vertex="1" parent="1">
          <mxGeometry x="750" y="960" width="120" height="1" as="geometry" />
        </mxCell>
        <mxCell id="h8Ty44yPj9Jnduj1fUJp-69" value="" style="html=1;overflow=block;blockSpacing=1;whiteSpace=wrap;fontSize=13;spacing=0;strokeColor=#3a414a;strokeOpacity=100;rounded=1;absoluteArcSize=1;arcSize=9;strokeWidth=0.8;lucidId=78j0DnPAGFlL;" vertex="1" parent="1">
          <mxGeometry x="660" y="937" width="300" height="1" as="geometry" />
        </mxCell>
        <mxCell id="h8Ty44yPj9Jnduj1fUJp-70" value="" style="html=1;overflow=block;blockSpacing=1;whiteSpace=wrap;fontSize=13;spacing=0;strokeColor=#3a414a;strokeOpacity=100;rounded=1;absoluteArcSize=1;arcSize=9;strokeWidth=0.8;lucidId=78j056YzdsZF;" vertex="1" parent="1">
          <mxGeometry x="660" y="810" width="299" height="1" as="geometry" />
        </mxCell>
        <mxCell id="h8Ty44yPj9Jnduj1fUJp-71" value="" style="html=1;overflow=block;blockSpacing=1;whiteSpace=wrap;fontSize=13;spacing=0;strokeColor=#3a414a;strokeOpacity=100;rounded=1;absoluteArcSize=1;arcSize=9;rotation=-270;strokeWidth=0.8;lucidId=78j0LQltLPrB;" vertex="1" parent="1">
          <mxGeometry x="810" y="735" width="150" height="1" as="geometry" />
        </mxCell>
        <mxCell id="h8Ty44yPj9Jnduj1fUJp-72" value="" style="html=1;overflow=block;blockSpacing=1;whiteSpace=wrap;fontSize=13;spacing=0;strokeColor=#3a414a;strokeOpacity=100;rounded=1;absoluteArcSize=1;arcSize=9;rotation=-270;strokeWidth=0.8;lucidId=78j0PP.9gxyc;" vertex="1" parent="1">
          <mxGeometry x="736" y="735" width="150" height="1" as="geometry" />
        </mxCell>
        <mxCell id="h8Ty44yPj9Jnduj1fUJp-73" value="" style="html=1;overflow=block;blockSpacing=1;whiteSpace=wrap;fontSize=13;spacing=0;strokeColor=#3a414a;strokeOpacity=100;rounded=1;absoluteArcSize=1;arcSize=9;strokeWidth=0.8;lucidId=78j0MgP-4kiy;" vertex="1" parent="1">
          <mxGeometry x="660" y="765" width="150" height="1" as="geometry" />
        </mxCell>
        <mxCell id="h8Ty44yPj9Jnduj1fUJp-74" value="" style="html=1;overflow=block;blockSpacing=1;whiteSpace=wrap;fontSize=13;spacing=0;strokeColor=#3a414a;strokeOpacity=100;rounded=1;absoluteArcSize=1;arcSize=9;rotation=-270;strokeWidth=0.8;lucidId=78j03AIaDtND;" vertex="1" parent="1">
          <mxGeometry x="684" y="712" width="105" height="1" as="geometry" />
        </mxCell>
        <mxCell id="h8Ty44yPj9Jnduj1fUJp-75" value="" style="html=1;overflow=block;blockSpacing=1;whiteSpace=wrap;fontSize=16.7;fontFamily=Liberation Serif;fontColor=#3a414a;spacing=9;strokeColor=#3a414a;strokeOpacity=100;rounded=1;absoluteArcSize=1;arcSize=9;strokeWidth=0.8;lucidId=78j0y2~690fx;" vertex="1" parent="1">
          <mxGeometry x="795" y="848" width="77" height="6" as="geometry" />
        </mxCell>
        <mxCell id="h8Ty44yPj9Jnduj1fUJp-76" value="开放格" style="html=1;overflow=block;blockSpacing=1;whiteSpace=wrap;fontSize=16.7;fontFamily=Liberation Serif;fontColor=#3a414a;spacing=3.8;strokeOpacity=0;fillOpacity=0;rounded=1;absoluteArcSize=1;arcSize=9;fillColor=#ffffff;strokeWidth=0.8;lucidId=78j0cXOXTWDt;" vertex="1" parent="1">
          <mxGeometry x="721" y="836" width="60" height="32" as="geometry" />
        </mxCell>
        <mxCell id="h8Ty44yPj9Jnduj1fUJp-77" value="玻璃" style="html=1;overflow=block;blockSpacing=1;whiteSpace=wrap;fontSize=16.7;fontFamily=Liberation Serif;fontColor=#3a414a;spacing=3.8;strokeOpacity=0;fillOpacity=0;rounded=1;absoluteArcSize=1;arcSize=9;fillColor=#ffffff;strokeWidth=0.8;lucidId=78j0fuFtyf3H;" vertex="1" parent="1">
          <mxGeometry x="555" y="817" width="30" height="45" as="geometry" />
        </mxCell>
        <mxCell id="h8Ty44yPj9Jnduj1fUJp-78" value="玻璃" style="html=1;overflow=block;blockSpacing=1;whiteSpace=wrap;fontSize=16.7;fontFamily=Liberation Serif;fontColor=#3a414a;spacing=3.8;strokeOpacity=0;fillOpacity=0;rounded=1;absoluteArcSize=1;arcSize=9;fillColor=#ffffff;strokeWidth=0.8;lucidId=78j0a9U8_6mh;" vertex="1" parent="1">
          <mxGeometry x="618" y="817" width="30" height="45" as="geometry" />
        </mxCell>
        <mxCell id="h8Ty44yPj9Jnduj1fUJp-79" value="开放格" style="html=1;overflow=block;blockSpacing=1;whiteSpace=wrap;fontSize=16.7;fontFamily=Liberation Serif;fontColor=#3a414a;spacing=3.8;strokeOpacity=0;fillOpacity=0;rounded=1;absoluteArcSize=1;arcSize=9;fillColor=#ffffff;strokeWidth=0.8;lucidId=78j0N6d5NNPW;" vertex="1" parent="1">
          <mxGeometry x="705" y="772" width="60" height="32" as="geometry" />
        </mxCell>
        <mxCell id="h8Ty44yPj9Jnduj1fUJp-80" value="抽屉" style="html=1;overflow=block;blockSpacing=1;whiteSpace=wrap;fontSize=16.7;fontFamily=Liberation Serif;fontColor=#3a414a;spacing=3.8;strokeOpacity=0;fillOpacity=0;rounded=1;absoluteArcSize=1;arcSize=9;fillColor=#ffffff;strokeWidth=0.8;lucidId=78j0GArlnWAF;" vertex="1" parent="1">
          <mxGeometry x="706" y="906" width="59" height="32" as="geometry" />
        </mxCell>
        <mxCell id="h8Ty44yPj9Jnduj1fUJp-81" value="木门" style="html=1;overflow=block;blockSpacing=1;whiteSpace=wrap;fontSize=16.7;fontFamily=Liberation Serif;fontColor=#3a414a;spacing=3.8;strokeOpacity=0;fillOpacity=0;rounded=1;absoluteArcSize=1;arcSize=9;fillColor=#ffffff;strokeWidth=0.8;lucidId=78j0XDk8oHgG;" vertex="1" parent="1">
          <mxGeometry x="683" y="945" width="36" height="68" as="geometry" />
        </mxCell>
        <mxCell id="h8Ty44yPj9Jnduj1fUJp-82" value="木门" style="html=1;overflow=block;blockSpacing=1;whiteSpace=wrap;fontSize=16.7;fontFamily=Liberation Serif;fontColor=#3a414a;spacing=3.8;strokeOpacity=0;fillOpacity=0;rounded=1;absoluteArcSize=1;arcSize=9;fillColor=#ffffff;strokeWidth=0.8;lucidId=78j0cDeucNqy;" vertex="1" parent="1">
          <mxGeometry x="755" y="945" width="36" height="68" as="geometry" />
        </mxCell>
        <mxCell id="h8Ty44yPj9Jnduj1fUJp-83" value="木门" style="html=1;overflow=block;blockSpacing=1;whiteSpace=wrap;fontSize=16.7;fontFamily=Liberation Serif;fontColor=#3a414a;spacing=3.8;strokeOpacity=0;fillOpacity=0;rounded=1;absoluteArcSize=1;arcSize=9;fillColor=#ffffff;strokeWidth=0.8;lucidId=78j0O_OUolZp;" vertex="1" parent="1">
          <mxGeometry x="835" y="945" width="36" height="68" as="geometry" />
        </mxCell>
        <mxCell id="h8Ty44yPj9Jnduj1fUJp-84" value="木门" style="html=1;overflow=block;blockSpacing=1;whiteSpace=wrap;fontSize=16.7;fontFamily=Liberation Serif;fontColor=#3a414a;spacing=3.8;strokeOpacity=0;fillOpacity=0;rounded=1;absoluteArcSize=1;arcSize=9;fillColor=#ffffff;strokeWidth=0.8;lucidId=78j0jYlx3RDS;" vertex="1" parent="1">
          <mxGeometry x="971" y="811" width="36" height="68" as="geometry" />
        </mxCell>
        <mxCell id="h8Ty44yPj9Jnduj1fUJp-85" value="管线机" style="html=1;overflow=block;blockSpacing=1;whiteSpace=wrap;fontSize=16.7;fontFamily=Liberation Serif;fontColor=#3a414a;spacing=9;strokeColor=#3a414a;strokeOpacity=100;rounded=1;absoluteArcSize=1;arcSize=9;strokeWidth=0.8;lucidId=78j0FugMk~_K;" vertex="1" parent="1">
          <mxGeometry x="901" y="816" width="43" height="78" as="geometry" />
        </mxCell>
        <mxCell id="h8Ty44yPj9Jnduj1fUJp-86" value="" style="html=1;overflow=block;blockSpacing=1;whiteSpace=wrap;fontSize=13;spacing=0;strokeColor=#3a414a;strokeOpacity=100;rounded=1;absoluteArcSize=1;arcSize=9;rotation=-270;strokeWidth=0.8;lucidId=r-j0WarNuwqQ;" vertex="1" parent="1">
          <mxGeometry x="694" y="978" width="83" height="1" as="geometry" />
        </mxCell>
        <mxCell id="h8Ty44yPj9Jnduj1fUJp-87" value="" style="html=1;overflow=block;blockSpacing=1;whiteSpace=wrap;fontSize=13;spacing=0;strokeColor=#3a414a;strokeOpacity=100;rounded=1;absoluteArcSize=1;arcSize=9;rotation=-270;strokeWidth=0.8;lucidId=I-j0VKn_3-d~;" vertex="1" parent="1">
          <mxGeometry x="846" y="977" width="83" height="1" as="geometry" />
        </mxCell>
        <mxCell id="h8Ty44yPj9Jnduj1fUJp-88" value="抽屉" style="html=1;overflow=block;blockSpacing=1;whiteSpace=wrap;fontSize=16.7;fontFamily=Liberation Serif;fontColor=#3a414a;spacing=3.8;strokeOpacity=0;fillOpacity=0;rounded=1;absoluteArcSize=1;arcSize=9;fillColor=#ffffff;strokeWidth=0.8;lucidId=R-j04yiiHpjt;" vertex="1" parent="1">
          <mxGeometry x="857" y="906" width="59" height="32" as="geometry" />
        </mxCell>
        <mxCell id="h8Ty44yPj9Jnduj1fUJp-89" value="木门" style="html=1;overflow=block;blockSpacing=1;whiteSpace=wrap;fontSize=16.7;fontFamily=Liberation Serif;fontColor=#3a414a;spacing=3.8;strokeOpacity=0;fillOpacity=0;rounded=1;absoluteArcSize=1;arcSize=9;fillColor=#ffffff;strokeWidth=0.8;lucidId=a_j0AN.oHTdA;" vertex="1" parent="1">
          <mxGeometry x="907" y="945" width="36" height="68" as="geometry" />
        </mxCell>
        <mxCell id="h8Ty44yPj9Jnduj1fUJp-90" value="木门" style="html=1;overflow=block;blockSpacing=1;whiteSpace=wrap;fontSize=16.7;fontFamily=Liberation Serif;fontColor=#3a414a;spacing=3.8;strokeOpacity=0;fillOpacity=0;rounded=1;absoluteArcSize=1;arcSize=9;fillColor=#ffffff;strokeWidth=0.8;lucidId=5_j0~FTSx7wC;" vertex="1" parent="1">
          <mxGeometry x="683" y="679" width="36" height="68" as="geometry" />
        </mxCell>
        <mxCell id="h8Ty44yPj9Jnduj1fUJp-91" value="木门" style="html=1;overflow=block;blockSpacing=1;whiteSpace=wrap;fontSize=16.7;fontFamily=Liberation Serif;fontColor=#3a414a;spacing=3.8;strokeOpacity=0;fillOpacity=0;rounded=1;absoluteArcSize=1;arcSize=9;fillColor=#ffffff;strokeWidth=0.8;lucidId=9_j0fHbMRT1.;" vertex="1" parent="1">
          <mxGeometry x="753" y="679" width="36" height="68" as="geometry" />
        </mxCell>
        <mxCell id="h8Ty44yPj9Jnduj1fUJp-92" value="木门" style="html=1;overflow=block;blockSpacing=1;whiteSpace=wrap;fontSize=16.7;fontFamily=Liberation Serif;fontColor=#3a414a;spacing=3.8;strokeOpacity=0;fillOpacity=0;rounded=1;absoluteArcSize=1;arcSize=9;fillColor=#ffffff;strokeWidth=0.8;lucidId=a.j0z1KJeR45;" vertex="1" parent="1">
          <mxGeometry x="830" y="679" width="36" height="68" as="geometry" />
        </mxCell>
        <mxCell id="h8Ty44yPj9Jnduj1fUJp-93" value="木门" style="html=1;overflow=block;blockSpacing=1;whiteSpace=wrap;fontSize=16.7;fontFamily=Liberation Serif;fontColor=#3a414a;spacing=3.8;strokeOpacity=0;fillOpacity=0;rounded=1;absoluteArcSize=1;arcSize=9;fillColor=#ffffff;strokeWidth=0.8;lucidId=f.j0dE7G95~X;" vertex="1" parent="1">
          <mxGeometry x="907" y="679" width="36" height="68" as="geometry" />
        </mxCell>
        <mxCell id="h8Ty44yPj9Jnduj1fUJp-94" value="" style="html=1;overflow=block;blockSpacing=1;whiteSpace=wrap;fontSize=13;spacing=9;strokeColor=#3a414a;strokeOpacity=100;rounded=1;absoluteArcSize=1;arcSize=9;strokeWidth=0.8;lucidId=q~j0yRQAYcyG;" vertex="1" parent="1">
          <mxGeometry x="1139" y="659" width="481" height="360" as="geometry" />
        </mxCell>
        <mxCell id="h8Ty44yPj9Jnduj1fUJp-95" value="" style="html=1;overflow=block;blockSpacing=1;whiteSpace=wrap;fontSize=13;spacing=0;strokeColor=#3a414a;strokeOpacity=100;rounded=1;absoluteArcSize=1;arcSize=9;rotation=-270;strokeWidth=0.8;lucidId=q~j0QzNF6iWo;" vertex="1" parent="1">
          <mxGeometry x="1020" y="839" width="360" height="1" as="geometry" />
        </mxCell>
        <mxCell id="h8Ty44yPj9Jnduj1fUJp-96" value="" style="html=1;overflow=block;blockSpacing=1;whiteSpace=wrap;fontSize=13;spacing=0;strokeColor=#3a414a;strokeOpacity=100;rounded=1;absoluteArcSize=1;arcSize=9;rotation=-270;strokeWidth=0.8;lucidId=q~j0.NPEutJE;" vertex="1" parent="1">
          <mxGeometry x="1321" y="839" width="360" height="1" as="geometry" />
        </mxCell>
        <mxCell id="h8Ty44yPj9Jnduj1fUJp-97" value="" style="html=1;overflow=block;blockSpacing=1;whiteSpace=wrap;fontSize=13;spacing=0;strokeColor=#3a414a;strokeOpacity=100;rounded=1;absoluteArcSize=1;arcSize=9;rotation=-270;strokeWidth=0.8;lucidId=q~j0yHQ5jfok;" vertex="1" parent="1">
          <mxGeometry x="1381" y="838" width="360" height="1" as="geometry" />
        </mxCell>
        <mxCell id="h8Ty44yPj9Jnduj1fUJp-98" value="" style="html=1;overflow=block;blockSpacing=1;whiteSpace=wrap;fontSize=13;spacing=0;strokeColor=#3a414a;strokeOpacity=100;rounded=1;absoluteArcSize=1;arcSize=9;rotation=-270;strokeWidth=0.8;lucidId=q~j0MXQFPMYa;" vertex="1" parent="1">
          <mxGeometry x="1156" y="838" width="360" height="1" as="geometry" />
        </mxCell>
        <mxCell id="h8Ty44yPj9Jnduj1fUJp-99" value="" style="html=1;overflow=block;blockSpacing=1;whiteSpace=wrap;fontSize=13;spacing=0;strokeColor=#3a414a;strokeOpacity=100;rounded=1;absoluteArcSize=1;arcSize=9;rotation=-270;strokeWidth=0.8;lucidId=q~j0vZXPf9qf;" vertex="1" parent="1">
          <mxGeometry x="1347" y="731" width="142" height="1" as="geometry" />
        </mxCell>
        <mxCell id="h8Ty44yPj9Jnduj1fUJp-100" value="" style="html=1;overflow=block;blockSpacing=1;whiteSpace=wrap;fontSize=13;spacing=0;strokeColor=#3a414a;strokeOpacity=100;rounded=1;absoluteArcSize=1;arcSize=9;strokeWidth=0.8;lucidId=q~j0dRgEWSiF;" vertex="1" parent="1">
          <mxGeometry x="1335" y="898" width="166" height="1" as="geometry" />
        </mxCell>
        <mxCell id="h8Ty44yPj9Jnduj1fUJp-101" value="" style="html=1;overflow=block;blockSpacing=1;whiteSpace=wrap;fontSize=13;spacing=0;strokeColor=#3a414a;strokeOpacity=100;rounded=1;absoluteArcSize=1;arcSize=9;strokeWidth=0.8;lucidId=q~j0rom~a3Q-;" vertex="1" parent="1">
          <mxGeometry x="1336" y="801" width="164" height="1" as="geometry" />
        </mxCell>
        <mxCell id="h8Ty44yPj9Jnduj1fUJp-102" value="" style="html=1;overflow=block;blockSpacing=1;whiteSpace=wrap;fontSize=13;spacing=0;strokeColor=#3a414a;strokeOpacity=100;rounded=1;absoluteArcSize=1;arcSize=9;rotation=-270;strokeWidth=0.8;lucidId=q~j0TQI1Con6;" vertex="1" parent="1">
          <mxGeometry x="1358" y="959" width="120" height="1" as="geometry" />
        </mxCell>
        <mxCell id="h8Ty44yPj9Jnduj1fUJp-103" value="" style="html=1;overflow=block;blockSpacing=1;whiteSpace=wrap;fontSize=13;spacing=0;strokeColor=#3a414a;strokeOpacity=100;rounded=1;absoluteArcSize=1;arcSize=9;strokeWidth=0.8;lucidId=q~j0MhV~-YPz;" vertex="1" parent="1">
          <mxGeometry x="1336" y="850" width="166" height="1" as="geometry" />
        </mxCell>
        <mxCell id="h8Ty44yPj9Jnduj1fUJp-104" value="木门" style="html=1;overflow=block;blockSpacing=1;whiteSpace=wrap;fontSize=16.7;fontFamily=Liberation Serif;fontColor=#3a414a;spacing=3.8;strokeOpacity=0;fillOpacity=0;rounded=1;absoluteArcSize=1;arcSize=9;fillColor=#ffffff;strokeWidth=0.8;lucidId=q~j0_5Gr7Ewg;" vertex="1" parent="1">
          <mxGeometry x="1575" y="814" width="36" height="68" as="geometry" />
        </mxCell>
        <mxCell id="h8Ty44yPj9Jnduj1fUJp-105" value="木门" style="html=1;overflow=block;blockSpacing=1;whiteSpace=wrap;fontSize=16.7;fontFamily=Liberation Serif;fontColor=#3a414a;spacing=3.8;strokeOpacity=0;fillOpacity=0;rounded=1;absoluteArcSize=1;arcSize=9;fillColor=#ffffff;strokeWidth=0.8;lucidId=q~j0INW0MIXu;" vertex="1" parent="1">
          <mxGeometry x="1152" y="811" width="36" height="68" as="geometry" />
        </mxCell>
        <mxCell id="h8Ty44yPj9Jnduj1fUJp-106" value="木门" style="html=1;overflow=block;blockSpacing=1;whiteSpace=wrap;fontSize=16.7;fontFamily=Liberation Serif;fontColor=#3a414a;spacing=3.8;strokeOpacity=0;fillOpacity=0;rounded=1;absoluteArcSize=1;arcSize=9;fillColor=#ffffff;strokeWidth=0.8;lucidId=q~j0T~efpjM~;" vertex="1" parent="1">
          <mxGeometry x="1363" y="693" width="36" height="68" as="geometry" />
        </mxCell>
        <mxCell id="h8Ty44yPj9Jnduj1fUJp-107" value="木门" style="html=1;overflow=block;blockSpacing=1;whiteSpace=wrap;fontSize=16.7;fontFamily=Liberation Serif;fontColor=#3a414a;spacing=3.8;strokeOpacity=0;fillOpacity=0;rounded=1;absoluteArcSize=1;arcSize=9;fillColor=#ffffff;strokeWidth=0.8;lucidId=q~j08ZvL0_z7;" vertex="1" parent="1">
          <mxGeometry x="1441" y="693" width="36" height="68" as="geometry" />
        </mxCell>
        <mxCell id="h8Ty44yPj9Jnduj1fUJp-108" value="木门" style="html=1;overflow=block;blockSpacing=1;whiteSpace=wrap;fontSize=16.7;fontFamily=Liberation Serif;fontColor=#3a414a;spacing=3.8;strokeOpacity=0;fillOpacity=0;rounded=1;absoluteArcSize=1;arcSize=9;fillColor=#ffffff;strokeWidth=0.8;lucidId=q~j0Y-ddHJU6;" vertex="1" parent="1">
          <mxGeometry x="1362" y="930" width="36" height="68" as="geometry" />
        </mxCell>
        <mxCell id="h8Ty44yPj9Jnduj1fUJp-109" value="木门" style="html=1;overflow=block;blockSpacing=1;whiteSpace=wrap;fontSize=16.7;fontFamily=Liberation Serif;fontColor=#3a414a;spacing=3.8;strokeOpacity=0;fillOpacity=0;rounded=1;absoluteArcSize=1;arcSize=9;fillColor=#ffffff;strokeWidth=0.8;lucidId=q~j0WAZpy_Gr;" vertex="1" parent="1">
          <mxGeometry x="1441" y="925" width="36" height="68" as="geometry" />
        </mxCell>
        <mxCell id="h8Ty44yPj9Jnduj1fUJp-110" value="开放格" style="html=1;overflow=block;blockSpacing=1;whiteSpace=wrap;fontSize=16.7;fontFamily=Liberation Serif;fontColor=#3a414a;spacing=3.8;strokeOpacity=0;fillOpacity=0;rounded=1;absoluteArcSize=1;arcSize=9;fillColor=#ffffff;strokeWidth=0.8;lucidId=q~j0lQPow--5;" vertex="1" parent="1">
          <mxGeometry x="1208" y="786" width="60" height="32" as="geometry" />
        </mxCell>
        <mxCell id="h8Ty44yPj9Jnduj1fUJp-111" value="开放格" style="html=1;overflow=block;blockSpacing=1;whiteSpace=wrap;fontSize=16.7;fontFamily=Liberation Serif;fontColor=#3a414a;spacing=3.8;strokeOpacity=0;fillOpacity=0;rounded=1;absoluteArcSize=1;arcSize=9;fillColor=#ffffff;strokeWidth=0.8;lucidId=q~j0ZX9enRbZ;" vertex="1" parent="1">
          <mxGeometry x="1209" y="948" width="60" height="32" as="geometry" />
        </mxCell>
        <mxCell id="h8Ty44yPj9Jnduj1fUJp-112" value="书格" style="html=1;overflow=block;blockSpacing=1;whiteSpace=wrap;fontSize=16.7;fontFamily=Liberation Serif;fontColor=#3a414a;spacing=3.8;strokeOpacity=0;fillOpacity=0;rounded=1;absoluteArcSize=1;arcSize=9;fillColor=#ffffff;strokeWidth=0.8;lucidId=q~j0A550hZki;" vertex="1" parent="1">
          <mxGeometry x="1389" y="851" width="60" height="48" as="geometry" />
        </mxCell>
        <mxCell id="h8Ty44yPj9Jnduj1fUJp-113" value="" style="html=1;overflow=block;blockSpacing=1;whiteSpace=wrap;ellipse;fontSize=13;spacing=3.8;strokeColor=#3a414a;strokeOpacity=100;rounded=1;absoluteArcSize=1;arcSize=9;strokeWidth=0.8;lucidId=q~j0ltXFZSEa;" vertex="1" parent="1">
          <mxGeometry x="1233" y="1000" width="10" height="10" as="geometry" />
        </mxCell>
        <mxCell id="h8Ty44yPj9Jnduj1fUJp-114" value="书格" style="html=1;overflow=block;blockSpacing=1;whiteSpace=wrap;fontSize=16.7;fontFamily=Liberation Serif;fontColor=#3a414a;spacing=3.8;strokeOpacity=0;fillOpacity=0;rounded=1;absoluteArcSize=1;arcSize=9;fillColor=#ffffff;strokeWidth=0.8;lucidId=q~j0so1qh5Ui;" vertex="1" parent="1">
          <mxGeometry x="1385" y="805" width="60" height="48" as="geometry" />
        </mxCell>
        <mxCell id="h8Ty44yPj9Jnduj1fUJp-115" value="" style="html=1;overflow=block;blockSpacing=1;whiteSpace=wrap;fontSize=13;spacing=0;strokeColor=#3a414a;strokeOpacity=100;rounded=1;absoluteArcSize=1;arcSize=9;strokeWidth=0.8;lucidId=q~j0INuo9~R0;" vertex="1" parent="1">
          <mxGeometry x="1139" y="720" width="59" height="1" as="geometry" />
        </mxCell>
        <mxCell id="h8Ty44yPj9Jnduj1fUJp-116" value="监控格" style="html=1;overflow=block;blockSpacing=1;whiteSpace=wrap;fontSize=16.7;fontFamily=Liberation Serif;fontColor=#3a414a;spacing=3.8;strokeOpacity=0;fillOpacity=0;rounded=1;absoluteArcSize=1;arcSize=9;fillColor=#ffffff;strokeWidth=0.8;lucidId=q~j0ok_EwQ9j;" vertex="1" parent="1">
          <mxGeometry x="1140" y="675" width="60" height="32" as="geometry" />
        </mxCell>
        <mxCell id="h8Ty44yPj9Jnduj1fUJp-117" value="" style="html=1;overflow=block;blockSpacing=1;whiteSpace=wrap;fontSize=13;spacing=0;strokeColor=#3a414a;strokeOpacity=100;rounded=1;absoluteArcSize=1;arcSize=9;rotation=-270;strokeWidth=0.8;lucidId=Oek0cersfiLR;" vertex="1" parent="1">
          <mxGeometry x="1095" y="838" width="360" height="1" as="geometry" />
        </mxCell>
        <mxCell id="h8Ty44yPj9Jnduj1fUJp-118" value="玻璃" style="html=1;overflow=block;blockSpacing=1;whiteSpace=wrap;fontSize=16.7;fontFamily=Liberation Serif;fontColor=#3a414a;spacing=3.8;strokeOpacity=0;fillOpacity=0;rounded=1;absoluteArcSize=1;arcSize=9;fillColor=#ffffff;strokeWidth=0.8;lucidId=efk0YbyYQOgD;" vertex="1" parent="1">
          <mxGeometry x="1292" y="813" width="30" height="45" as="geometry" />
        </mxCell>
        <mxCell id="h8Ty44yPj9Jnduj1fUJp-119" value="木门" style="html=1;overflow=block;blockSpacing=1;whiteSpace=wrap;fontSize=16.7;fontFamily=Liberation Serif;fontColor=#3a414a;spacing=3.8;strokeOpacity=0;fillOpacity=0;rounded=1;absoluteArcSize=1;arcSize=9;fillColor=#ffffff;strokeWidth=0.8;lucidId=ufk0aXvk7jEk;" vertex="1" parent="1">
          <mxGeometry x="1508" y="814" width="36" height="68" as="geometry" />
        </mxCell>
        <mxCell id="h8Ty44yPj9Jnduj1fUJp-120" value="" style="html=1;overflow=block;blockSpacing=1;whiteSpace=wrap;fontSize=13;spacing=0;strokeColor=#3a414a;strokeOpacity=100;rounded=1;absoluteArcSize=1;arcSize=9;strokeWidth=0.8;lucidId=Pfk0QHJeXBoY;" vertex="1" parent="1">
          <mxGeometry x="1200" y="900" width="74" height="1" as="geometry" />
        </mxCell>
        <mxCell id="h8Ty44yPj9Jnduj1fUJp-121" value="" style="html=1;overflow=block;blockSpacing=1;whiteSpace=wrap;fontSize=13;spacing=3.8;strokeColor=#3a414a;strokeOpacity=100;rounded=1;absoluteArcSize=1;arcSize=9;strokeWidth=0.8;lucidId=.hk03YW_002R;" vertex="1" parent="1">
          <mxGeometry x="540" y="1080" width="480" height="360" as="geometry" />
        </mxCell>
        <mxCell id="h8Ty44yPj9Jnduj1fUJp-122" value="" style="html=1;overflow=block;blockSpacing=1;whiteSpace=wrap;fontSize=13;spacing=0;strokeColor=#4c535d;strokeOpacity=100;rounded=1;absoluteArcSize=1;arcSize=9;rotation=-270;strokeWidth=0.8;lucidId=.hk0gwcze3SJ;" vertex="1" parent="1">
          <mxGeometry x="420" y="1260" width="360" height="1" as="geometry" />
        </mxCell>
        <mxCell id="h8Ty44yPj9Jnduj1fUJp-123" value="" style="html=1;overflow=block;blockSpacing=1;whiteSpace=wrap;fontSize=13;spacing=0;strokeColor=#3a414a;strokeOpacity=100;rounded=1;absoluteArcSize=1;arcSize=9;rotation=-270;strokeWidth=0.8;lucidId=.hk0KCxX8zW4;" vertex="1" parent="1">
          <mxGeometry x="480" y="1260" width="360" height="1" as="geometry" />
        </mxCell>
        <mxCell id="h8Ty44yPj9Jnduj1fUJp-124" value="" style="html=1;overflow=block;blockSpacing=1;whiteSpace=wrap;fontSize=13;spacing=0;strokeColor=#3a414a;strokeOpacity=100;rounded=1;absoluteArcSize=1;arcSize=9;strokeWidth=0.8;lucidId=.hk03MTce9~l;" vertex="1" parent="1">
          <mxGeometry x="660" y="1320" width="300" height="1" as="geometry" />
        </mxCell>
        <mxCell id="h8Ty44yPj9Jnduj1fUJp-125" value="" style="html=1;overflow=block;blockSpacing=1;whiteSpace=wrap;fontSize=13;spacing=0;strokeColor=#3a414a;strokeOpacity=100;rounded=1;absoluteArcSize=1;arcSize=9;rotation=-270;strokeWidth=0.8;lucidId=.hk0nhYwJiIB;" vertex="1" parent="1">
          <mxGeometry x="780" y="1260" width="360" height="1" as="geometry" />
        </mxCell>
        <mxCell id="h8Ty44yPj9Jnduj1fUJp-126" value="" style="html=1;overflow=block;blockSpacing=1;whiteSpace=wrap;fontSize=13;spacing=0;strokeColor=#3a414a;strokeOpacity=100;rounded=1;absoluteArcSize=1;arcSize=9;rotation=-270;strokeWidth=0.8;lucidId=.hk0D3vQSxjr;" vertex="1" parent="1">
          <mxGeometry x="750" y="1380" width="120" height="1" as="geometry" />
        </mxCell>
        <mxCell id="h8Ty44yPj9Jnduj1fUJp-127" value="" style="html=1;overflow=block;blockSpacing=1;whiteSpace=wrap;fontSize=13;spacing=0;strokeColor=#3a414a;strokeOpacity=100;rounded=1;absoluteArcSize=1;arcSize=9;strokeWidth=0.8;lucidId=.hk08_j1bp-G;" vertex="1" parent="1">
          <mxGeometry x="660" y="1357" width="300" height="1" as="geometry" />
        </mxCell>
        <mxCell id="h8Ty44yPj9Jnduj1fUJp-128" value="" style="html=1;overflow=block;blockSpacing=1;whiteSpace=wrap;fontSize=13;spacing=0;strokeColor=#3a414a;strokeOpacity=100;rounded=1;absoluteArcSize=1;arcSize=9;strokeWidth=0.8;lucidId=.hk04yY_ld9b;" vertex="1" parent="1">
          <mxGeometry x="660" y="1230" width="299" height="1" as="geometry" />
        </mxCell>
        <mxCell id="h8Ty44yPj9Jnduj1fUJp-129" value="" style="html=1;overflow=block;blockSpacing=1;whiteSpace=wrap;fontSize=13;spacing=0;strokeColor=#3a414a;strokeOpacity=100;rounded=1;absoluteArcSize=1;arcSize=9;rotation=-270;strokeWidth=0.8;lucidId=.hk0rC3t2SsK;" vertex="1" parent="1">
          <mxGeometry x="810" y="1155" width="150" height="1" as="geometry" />
        </mxCell>
        <mxCell id="h8Ty44yPj9Jnduj1fUJp-130" value="" style="html=1;overflow=block;blockSpacing=1;whiteSpace=wrap;fontSize=13;spacing=0;strokeColor=#3a414a;strokeOpacity=100;rounded=1;absoluteArcSize=1;arcSize=9;rotation=-270;strokeWidth=0.8;lucidId=.hk0mTejYEPt;" vertex="1" parent="1">
          <mxGeometry x="736" y="1155" width="150" height="1" as="geometry" />
        </mxCell>
        <mxCell id="h8Ty44yPj9Jnduj1fUJp-131" value="" style="html=1;overflow=block;blockSpacing=1;whiteSpace=wrap;fontSize=13;spacing=0;strokeColor=#3a414a;strokeOpacity=100;rounded=1;absoluteArcSize=1;arcSize=9;strokeWidth=0.8;lucidId=.hk0SDke~~ll;" vertex="1" parent="1">
          <mxGeometry x="660" y="1185" width="150" height="1" as="geometry" />
        </mxCell>
        <mxCell id="h8Ty44yPj9Jnduj1fUJp-132" value="" style="html=1;overflow=block;blockSpacing=1;whiteSpace=wrap;fontSize=13;spacing=0;strokeColor=#3a414a;strokeOpacity=100;rounded=1;absoluteArcSize=1;arcSize=9;rotation=-270;strokeWidth=0.8;lucidId=.hk0aW6NYqQ6;" vertex="1" parent="1">
          <mxGeometry x="684" y="1132" width="105" height="1" as="geometry" />
        </mxCell>
        <mxCell id="h8Ty44yPj9Jnduj1fUJp-133" value="" style="html=1;overflow=block;blockSpacing=1;whiteSpace=wrap;fontSize=16.7;fontFamily=Liberation Serif;fontColor=#3a414a;spacing=9;strokeColor=#3a414a;strokeOpacity=100;rounded=1;absoluteArcSize=1;arcSize=9;strokeWidth=0.8;lucidId=.hk09L6nL1Om;" vertex="1" parent="1">
          <mxGeometry x="795" y="1268" width="77" height="6" as="geometry" />
        </mxCell>
        <mxCell id="h8Ty44yPj9Jnduj1fUJp-134" value="开放格" style="html=1;overflow=block;blockSpacing=1;whiteSpace=wrap;fontSize=16.7;fontFamily=Liberation Serif;fontColor=#3a414a;spacing=3.8;strokeOpacity=0;fillOpacity=0;rounded=1;absoluteArcSize=1;arcSize=9;fillColor=#ffffff;strokeWidth=0.8;lucidId=.hk0DPOqORCi;" vertex="1" parent="1">
          <mxGeometry x="721" y="1256" width="60" height="32" as="geometry" />
        </mxCell>
        <mxCell id="h8Ty44yPj9Jnduj1fUJp-135" value="木门" style="html=1;overflow=block;blockSpacing=1;whiteSpace=wrap;fontSize=16.7;fontFamily=Liberation Serif;fontColor=#3a414a;spacing=3.8;strokeOpacity=0;fillOpacity=0;rounded=1;absoluteArcSize=1;arcSize=9;fillColor=#ffffff;strokeWidth=0.8;lucidId=.hk00FJT-8hq;" vertex="1" parent="1">
          <mxGeometry x="555" y="1240" width="30" height="48" as="geometry" />
        </mxCell>
        <mxCell id="h8Ty44yPj9Jnduj1fUJp-136" value="玻璃" style="html=1;overflow=block;blockSpacing=1;whiteSpace=wrap;fontSize=16.7;fontFamily=Liberation Serif;fontColor=#3a414a;spacing=3.8;strokeOpacity=0;fillOpacity=0;rounded=1;absoluteArcSize=1;arcSize=9;fillColor=#ffffff;strokeWidth=0.8;lucidId=.hk0rSpm13oi;" vertex="1" parent="1">
          <mxGeometry x="618" y="1237" width="30" height="45" as="geometry" />
        </mxCell>
        <mxCell id="h8Ty44yPj9Jnduj1fUJp-137" value="开放格" style="html=1;overflow=block;blockSpacing=1;whiteSpace=wrap;fontSize=16.7;fontFamily=Liberation Serif;fontColor=#3a414a;spacing=3.8;strokeOpacity=0;fillOpacity=0;rounded=1;absoluteArcSize=1;arcSize=9;fillColor=#ffffff;strokeWidth=0.8;lucidId=.hk0V3DdlY9t;" vertex="1" parent="1">
          <mxGeometry x="705" y="1192" width="60" height="32" as="geometry" />
        </mxCell>
        <mxCell id="h8Ty44yPj9Jnduj1fUJp-138" value="抽屉" style="html=1;overflow=block;blockSpacing=1;whiteSpace=wrap;fontSize=16.7;fontFamily=Liberation Serif;fontColor=#3a414a;spacing=3.8;strokeOpacity=0;fillOpacity=0;rounded=1;absoluteArcSize=1;arcSize=9;fillColor=#ffffff;strokeWidth=0.8;lucidId=.hk0v6HsMkEd;" vertex="1" parent="1">
          <mxGeometry x="706" y="1326" width="59" height="32" as="geometry" />
        </mxCell>
        <mxCell id="h8Ty44yPj9Jnduj1fUJp-139" value="木门" style="html=1;overflow=block;blockSpacing=1;whiteSpace=wrap;fontSize=16.7;fontFamily=Liberation Serif;fontColor=#3a414a;spacing=3.8;strokeOpacity=0;fillOpacity=0;rounded=1;absoluteArcSize=1;arcSize=9;fillColor=#ffffff;strokeWidth=0.8;lucidId=.hk0LC2~mbGy;" vertex="1" parent="1">
          <mxGeometry x="683" y="1365" width="36" height="68" as="geometry" />
        </mxCell>
        <mxCell id="h8Ty44yPj9Jnduj1fUJp-140" value="木门" style="html=1;overflow=block;blockSpacing=1;whiteSpace=wrap;fontSize=16.7;fontFamily=Liberation Serif;fontColor=#3a414a;spacing=3.8;strokeOpacity=0;fillOpacity=0;rounded=1;absoluteArcSize=1;arcSize=9;fillColor=#ffffff;strokeWidth=0.8;lucidId=.hk0ifU5~upK;" vertex="1" parent="1">
          <mxGeometry x="755" y="1365" width="36" height="68" as="geometry" />
        </mxCell>
        <mxCell id="h8Ty44yPj9Jnduj1fUJp-141" value="木门" style="html=1;overflow=block;blockSpacing=1;whiteSpace=wrap;fontSize=16.7;fontFamily=Liberation Serif;fontColor=#3a414a;spacing=3.8;strokeOpacity=0;fillOpacity=0;rounded=1;absoluteArcSize=1;arcSize=9;fillColor=#ffffff;strokeWidth=0.8;lucidId=.hk0d1Z.m-mZ;" vertex="1" parent="1">
          <mxGeometry x="835" y="1365" width="36" height="68" as="geometry" />
        </mxCell>
        <mxCell id="h8Ty44yPj9Jnduj1fUJp-142" value="木门" style="html=1;overflow=block;blockSpacing=1;whiteSpace=wrap;fontSize=16.7;fontFamily=Liberation Serif;fontColor=#3a414a;spacing=3.8;strokeOpacity=0;fillOpacity=0;rounded=1;absoluteArcSize=1;arcSize=9;fillColor=#ffffff;strokeWidth=0.8;lucidId=.hk0U1W8_xsd;" vertex="1" parent="1">
          <mxGeometry x="971" y="1230" width="36" height="68" as="geometry" />
        </mxCell>
        <mxCell id="h8Ty44yPj9Jnduj1fUJp-143" value="管线机" style="html=1;overflow=block;blockSpacing=1;whiteSpace=wrap;fontSize=16.7;fontFamily=Liberation Serif;fontColor=#3a414a;spacing=9;strokeColor=#3a414a;strokeOpacity=100;rounded=1;absoluteArcSize=1;arcSize=9;strokeWidth=0.8;lucidId=.hk0gmhFiuE-;" vertex="1" parent="1">
          <mxGeometry x="901" y="1236" width="43" height="78" as="geometry" />
        </mxCell>
        <mxCell id="h8Ty44yPj9Jnduj1fUJp-144" value="" style="html=1;overflow=block;blockSpacing=1;whiteSpace=wrap;fontSize=13;spacing=0;strokeColor=#3a414a;strokeOpacity=100;rounded=1;absoluteArcSize=1;arcSize=9;rotation=-270;strokeWidth=0.8;lucidId=.hk0bpZvJhf~;" vertex="1" parent="1">
          <mxGeometry x="694" y="1398" width="83" height="1" as="geometry" />
        </mxCell>
        <mxCell id="h8Ty44yPj9Jnduj1fUJp-145" value="" style="html=1;overflow=block;blockSpacing=1;whiteSpace=wrap;fontSize=13;spacing=0;strokeColor=#3a414a;strokeOpacity=100;rounded=1;absoluteArcSize=1;arcSize=9;rotation=-270;strokeWidth=0.8;lucidId=.hk0EtVpM0vD;" vertex="1" parent="1">
          <mxGeometry x="846" y="1397" width="83" height="1" as="geometry" />
        </mxCell>
        <mxCell id="h8Ty44yPj9Jnduj1fUJp-146" value="抽屉" style="html=1;overflow=block;blockSpacing=1;whiteSpace=wrap;fontSize=16.7;fontFamily=Liberation Serif;fontColor=#3a414a;spacing=3.8;strokeOpacity=0;fillOpacity=0;rounded=1;absoluteArcSize=1;arcSize=9;fillColor=#ffffff;strokeWidth=0.8;lucidId=.hk0Aq4lsWvD;" vertex="1" parent="1">
          <mxGeometry x="857" y="1326" width="59" height="32" as="geometry" />
        </mxCell>
        <mxCell id="h8Ty44yPj9Jnduj1fUJp-147" value="木门" style="html=1;overflow=block;blockSpacing=1;whiteSpace=wrap;fontSize=16.7;fontFamily=Liberation Serif;fontColor=#3a414a;spacing=3.8;strokeOpacity=0;fillOpacity=0;rounded=1;absoluteArcSize=1;arcSize=9;fillColor=#ffffff;strokeWidth=0.8;lucidId=.hk0v_11dtQF;" vertex="1" parent="1">
          <mxGeometry x="907" y="1365" width="36" height="68" as="geometry" />
        </mxCell>
        <mxCell id="h8Ty44yPj9Jnduj1fUJp-148" value="木门" style="html=1;overflow=block;blockSpacing=1;whiteSpace=wrap;fontSize=16.7;fontFamily=Liberation Serif;fontColor=#3a414a;spacing=3.8;strokeOpacity=0;fillOpacity=0;rounded=1;absoluteArcSize=1;arcSize=9;fillColor=#ffffff;strokeWidth=0.8;lucidId=.hk0K4R0nctY;" vertex="1" parent="1">
          <mxGeometry x="683" y="1099" width="36" height="68" as="geometry" />
        </mxCell>
        <mxCell id="h8Ty44yPj9Jnduj1fUJp-149" value="木门" style="html=1;overflow=block;blockSpacing=1;whiteSpace=wrap;fontSize=16.7;fontFamily=Liberation Serif;fontColor=#3a414a;spacing=3.8;strokeOpacity=0;fillOpacity=0;rounded=1;absoluteArcSize=1;arcSize=9;fillColor=#ffffff;strokeWidth=0.8;lucidId=.hk0VtN._9AX;" vertex="1" parent="1">
          <mxGeometry x="753" y="1099" width="36" height="68" as="geometry" />
        </mxCell>
        <mxCell id="h8Ty44yPj9Jnduj1fUJp-150" value="木门" style="html=1;overflow=block;blockSpacing=1;whiteSpace=wrap;fontSize=16.7;fontFamily=Liberation Serif;fontColor=#3a414a;spacing=3.8;strokeOpacity=0;fillOpacity=0;rounded=1;absoluteArcSize=1;arcSize=9;fillColor=#ffffff;strokeWidth=0.8;lucidId=.hk0BUOQfK26;" vertex="1" parent="1">
          <mxGeometry x="830" y="1099" width="36" height="68" as="geometry" />
        </mxCell>
        <mxCell id="h8Ty44yPj9Jnduj1fUJp-151" value="木门" style="html=1;overflow=block;blockSpacing=1;whiteSpace=wrap;fontSize=16.7;fontFamily=Liberation Serif;fontColor=#3a414a;spacing=3.8;strokeOpacity=0;fillOpacity=0;rounded=1;absoluteArcSize=1;arcSize=9;fillColor=#ffffff;strokeWidth=0.8;lucidId=.hk0fgBOeHY5;" vertex="1" parent="1">
          <mxGeometry x="907" y="1099" width="36" height="68" as="geometry" />
        </mxCell>
        <mxCell id="h8Ty44yPj9Jnduj1fUJp-152" value="" style="html=1;overflow=block;blockSpacing=1;whiteSpace=wrap;fontSize=13;spacing=9;strokeColor=#3a414a;strokeOpacity=100;rounded=1;absoluteArcSize=1;arcSize=9;strokeWidth=0.8;lucidId=bkk0GxLPU_CH;" vertex="1" parent="1">
          <mxGeometry x="1141" y="1079" width="480" height="360" as="geometry" />
        </mxCell>
        <mxCell id="h8Ty44yPj9Jnduj1fUJp-153" value="" style="html=1;overflow=block;blockSpacing=1;whiteSpace=wrap;fontSize=13;spacing=0;strokeColor=#3a414a;strokeOpacity=100;rounded=1;absoluteArcSize=1;arcSize=9;rotation=-270;strokeWidth=0.8;lucidId=bkk0pk9TfWND;" vertex="1" parent="1">
          <mxGeometry x="1022" y="1258" width="360" height="1" as="geometry" />
        </mxCell>
        <mxCell id="h8Ty44yPj9Jnduj1fUJp-154" value="" style="html=1;overflow=block;blockSpacing=1;whiteSpace=wrap;fontSize=13;spacing=0;strokeColor=#3a414a;strokeOpacity=100;rounded=1;absoluteArcSize=1;arcSize=9;rotation=-270;strokeWidth=0.8;lucidId=bkk0ivuk2xp0;" vertex="1" parent="1">
          <mxGeometry x="1382" y="1258" width="360" height="1" as="geometry" />
        </mxCell>
        <mxCell id="h8Ty44yPj9Jnduj1fUJp-155" value="" style="html=1;overflow=block;blockSpacing=1;whiteSpace=wrap;fontSize=13;spacing=0;strokeColor=#3a414a;strokeOpacity=100;rounded=1;absoluteArcSize=1;arcSize=9;rotation=-270;strokeWidth=0.8;lucidId=bkk0un-0~8Fj;" vertex="1" parent="1">
          <mxGeometry x="1262" y="1259" width="360" height="1" as="geometry" />
        </mxCell>
        <mxCell id="h8Ty44yPj9Jnduj1fUJp-156" value="" style="html=1;overflow=block;blockSpacing=1;whiteSpace=wrap;fontSize=13;spacing=0;strokeColor=#3a414a;strokeOpacity=100;rounded=1;absoluteArcSize=1;arcSize=9;rotation=-270;strokeWidth=0.8;lucidId=bkk0-4ydsTLl;" vertex="1" parent="1">
          <mxGeometry x="1322" y="1258" width="360" height="1" as="geometry" />
        </mxCell>
        <mxCell id="h8Ty44yPj9Jnduj1fUJp-157" value="" style="html=1;overflow=block;blockSpacing=1;whiteSpace=wrap;fontSize=13;spacing=0;strokeColor=#3a414a;strokeOpacity=100;rounded=1;absoluteArcSize=1;arcSize=9;rotation=-270;strokeWidth=0.8;lucidId=bkk0SdJ23B35;" vertex="1" parent="1">
          <mxGeometry x="1097" y="1258" width="360" height="1" as="geometry" />
        </mxCell>
        <mxCell id="h8Ty44yPj9Jnduj1fUJp-158" value="" style="html=1;overflow=block;blockSpacing=1;whiteSpace=wrap;fontSize=13;spacing=0;strokeColor=#3a414a;strokeOpacity=100;rounded=1;absoluteArcSize=1;arcSize=9;rotation=-270;strokeWidth=0.8;lucidId=bkk08nj9UiWs;" vertex="1" parent="1">
          <mxGeometry x="1288" y="1151" width="142" height="1" as="geometry" />
        </mxCell>
        <mxCell id="h8Ty44yPj9Jnduj1fUJp-159" value="" style="html=1;overflow=block;blockSpacing=1;whiteSpace=wrap;fontSize=13;spacing=0;strokeColor=#3a414a;strokeOpacity=100;rounded=1;absoluteArcSize=1;arcSize=9;strokeWidth=0.8;lucidId=bkk03Rrl6Kd2;" vertex="1" parent="1">
          <mxGeometry x="1202" y="1318" width="239" height="1" as="geometry" />
        </mxCell>
        <mxCell id="h8Ty44yPj9Jnduj1fUJp-160" value="" style="html=1;overflow=block;blockSpacing=1;whiteSpace=wrap;fontSize=13;spacing=0;strokeColor=#3a414a;strokeOpacity=100;rounded=1;absoluteArcSize=1;arcSize=9;strokeWidth=0.8;lucidId=bkk0P~7QzBbf;" vertex="1" parent="1">
          <mxGeometry x="1276" y="1221" width="164" height="1" as="geometry" />
        </mxCell>
        <mxCell id="h8Ty44yPj9Jnduj1fUJp-161" value="" style="html=1;overflow=block;blockSpacing=1;whiteSpace=wrap;fontSize=13;spacing=0;strokeColor=#3a414a;strokeOpacity=100;rounded=1;absoluteArcSize=1;arcSize=9;rotation=-270;strokeWidth=0.8;lucidId=bkk06qF_7oR7;" vertex="1" parent="1">
          <mxGeometry x="1273" y="1355" width="170" height="1" as="geometry" />
        </mxCell>
        <mxCell id="h8Ty44yPj9Jnduj1fUJp-162" value="" style="html=1;overflow=block;blockSpacing=1;whiteSpace=wrap;fontSize=13;spacing=0;strokeColor=#3a414a;strokeOpacity=100;rounded=1;absoluteArcSize=1;arcSize=9;strokeWidth=0.8;lucidId=bkk0E-c7qzo9;" vertex="1" parent="1">
          <mxGeometry x="1276" y="1270" width="166" height="1" as="geometry" />
        </mxCell>
        <mxCell id="h8Ty44yPj9Jnduj1fUJp-163" value="木门" style="html=1;overflow=block;blockSpacing=1;whiteSpace=wrap;fontSize=16.7;fontFamily=Liberation Serif;fontColor=#3a414a;spacing=3.8;strokeOpacity=0;fillOpacity=0;rounded=1;absoluteArcSize=1;arcSize=9;fillColor=#ffffff;strokeWidth=0.8;lucidId=bkk0k4HL7Wqw;" vertex="1" parent="1">
          <mxGeometry x="1511" y="1238" width="36" height="68" as="geometry" />
        </mxCell>
        <mxCell id="h8Ty44yPj9Jnduj1fUJp-164" value="木门" style="html=1;overflow=block;blockSpacing=1;whiteSpace=wrap;fontSize=16.7;fontFamily=Liberation Serif;fontColor=#3a414a;spacing=3.8;strokeOpacity=0;fillOpacity=0;rounded=1;absoluteArcSize=1;arcSize=9;fillColor=#ffffff;strokeWidth=0.8;lucidId=bkk0YwnqsmmU;" vertex="1" parent="1">
          <mxGeometry x="1576" y="1236" width="36" height="68" as="geometry" />
        </mxCell>
        <mxCell id="h8Ty44yPj9Jnduj1fUJp-165" value="木门" style="html=1;overflow=block;blockSpacing=1;whiteSpace=wrap;fontSize=16.7;fontFamily=Liberation Serif;fontColor=#3a414a;spacing=3.8;strokeOpacity=0;fillOpacity=0;rounded=1;absoluteArcSize=1;arcSize=9;fillColor=#ffffff;strokeWidth=0.8;lucidId=bkk0A.bbnnR_;" vertex="1" parent="1">
          <mxGeometry x="1153" y="1236" width="36" height="68" as="geometry" />
        </mxCell>
        <mxCell id="h8Ty44yPj9Jnduj1fUJp-166" value="木门" style="html=1;overflow=block;blockSpacing=1;whiteSpace=wrap;fontSize=16.7;fontFamily=Liberation Serif;fontColor=#3a414a;spacing=3.8;strokeOpacity=0;fillOpacity=0;rounded=1;absoluteArcSize=1;arcSize=9;fillColor=#ffffff;strokeWidth=0.8;lucidId=bkk0MtcZ2CW9;" vertex="1" parent="1">
          <mxGeometry x="1304" y="1112" width="36" height="68" as="geometry" />
        </mxCell>
        <mxCell id="h8Ty44yPj9Jnduj1fUJp-167" value="木门" style="html=1;overflow=block;blockSpacing=1;whiteSpace=wrap;fontSize=16.7;fontFamily=Liberation Serif;fontColor=#3a414a;spacing=3.8;strokeOpacity=0;fillOpacity=0;rounded=1;absoluteArcSize=1;arcSize=9;fillColor=#ffffff;strokeWidth=0.8;lucidId=bkk0PNInNzQ2;" vertex="1" parent="1">
          <mxGeometry x="1382" y="1112" width="36" height="68" as="geometry" />
        </mxCell>
        <mxCell id="h8Ty44yPj9Jnduj1fUJp-168" value="木门" style="html=1;overflow=block;blockSpacing=1;whiteSpace=wrap;fontSize=16.7;fontFamily=Liberation Serif;fontColor=#3a414a;spacing=3.8;strokeOpacity=0;fillOpacity=0;rounded=1;absoluteArcSize=1;arcSize=9;fillColor=#ffffff;strokeWidth=0.8;lucidId=bkk0Tx63TVOA;" vertex="1" parent="1">
          <mxGeometry x="1303" y="1349" width="36" height="68" as="geometry" />
        </mxCell>
        <mxCell id="h8Ty44yPj9Jnduj1fUJp-169" value="木门" style="html=1;overflow=block;blockSpacing=1;whiteSpace=wrap;fontSize=16.7;fontFamily=Liberation Serif;fontColor=#3a414a;spacing=3.8;strokeOpacity=0;fillOpacity=0;rounded=1;absoluteArcSize=1;arcSize=9;fillColor=#ffffff;strokeWidth=0.8;lucidId=bkk090Jc4kSx;" vertex="1" parent="1">
          <mxGeometry x="1382" y="1345" width="36" height="68" as="geometry" />
        </mxCell>
        <mxCell id="h8Ty44yPj9Jnduj1fUJp-170" value="开放格" style="html=1;overflow=block;blockSpacing=1;whiteSpace=wrap;fontSize=16.7;fontFamily=Liberation Serif;fontColor=#3a414a;spacing=3.8;strokeOpacity=0;fillOpacity=0;rounded=1;absoluteArcSize=1;arcSize=9;fillColor=#ffffff;strokeWidth=0.8;lucidId=bkk0hIPI0C8A;" vertex="1" parent="1">
          <mxGeometry x="1211" y="1206" width="60" height="32" as="geometry" />
        </mxCell>
        <mxCell id="h8Ty44yPj9Jnduj1fUJp-171" value="开放格" style="html=1;overflow=block;blockSpacing=1;whiteSpace=wrap;fontSize=16.7;fontFamily=Liberation Serif;fontColor=#3a414a;spacing=3.8;strokeOpacity=0;fillOpacity=0;rounded=1;absoluteArcSize=1;arcSize=9;fillColor=#ffffff;strokeWidth=0.8;lucidId=bkk0N5OftFVs;" vertex="1" parent="1">
          <mxGeometry x="1210" y="1361" width="60" height="32" as="geometry" />
        </mxCell>
        <mxCell id="h8Ty44yPj9Jnduj1fUJp-172" value="玻璃" style="html=1;overflow=block;blockSpacing=1;whiteSpace=wrap;fontSize=16.7;fontFamily=Liberation Serif;fontColor=#3a414a;spacing=3.8;strokeOpacity=0;fillOpacity=0;rounded=1;absoluteArcSize=1;arcSize=9;fillColor=#ffffff;strokeWidth=0.8;lucidId=bkk0eOJKyyCI;" vertex="1" parent="1">
          <mxGeometry x="1457" y="1248" width="30" height="45" as="geometry" />
        </mxCell>
        <mxCell id="h8Ty44yPj9Jnduj1fUJp-173" value="" style="html=1;overflow=block;blockSpacing=1;whiteSpace=wrap;ellipse;fontSize=13;spacing=3.8;strokeColor=#3a414a;strokeOpacity=100;rounded=1;absoluteArcSize=1;arcSize=9;strokeWidth=0.8;lucidId=bkk0ZidOWN0N;" vertex="1" parent="1">
          <mxGeometry x="1235" y="1417" width="10" height="10" as="geometry" />
        </mxCell>
        <mxCell id="h8Ty44yPj9Jnduj1fUJp-174" value="书格" style="html=1;overflow=block;blockSpacing=1;whiteSpace=wrap;fontSize=16.7;fontFamily=Liberation Serif;fontColor=#3a414a;spacing=3.8;strokeOpacity=0;fillOpacity=0;rounded=1;absoluteArcSize=1;arcSize=9;fillColor=#ffffff;strokeWidth=0.8;lucidId=bkk0vdvAO.sw;" vertex="1" parent="1">
          <mxGeometry x="1326" y="1230" width="60" height="26" as="geometry" />
        </mxCell>
        <mxCell id="h8Ty44yPj9Jnduj1fUJp-175" value="" style="html=1;overflow=block;blockSpacing=1;whiteSpace=wrap;fontSize=13;spacing=0;strokeColor=#3a414a;strokeOpacity=100;rounded=1;absoluteArcSize=1;arcSize=9;strokeWidth=0.8;lucidId=bkk0q457Qeqg;" vertex="1" parent="1">
          <mxGeometry x="1142" y="1139" width="59" height="1" as="geometry" />
        </mxCell>
        <mxCell id="h8Ty44yPj9Jnduj1fUJp-176" value="监控格" style="html=1;overflow=block;blockSpacing=1;whiteSpace=wrap;fontSize=16.7;fontFamily=Liberation Serif;fontColor=#3a414a;spacing=3.8;strokeOpacity=0;fillOpacity=0;rounded=1;absoluteArcSize=1;arcSize=9;fillColor=#ffffff;strokeWidth=0.8;lucidId=bkk03Pp3HAJB;" vertex="1" parent="1">
          <mxGeometry x="1141" y="1097" width="60" height="32" as="geometry" />
        </mxCell>
        <mxCell id="h8Ty44yPj9Jnduj1fUJp-177" value="书格" style="html=1;overflow=block;blockSpacing=1;whiteSpace=wrap;fontSize=16.7;fontFamily=Liberation Serif;fontColor=#3a414a;spacing=3.8;strokeOpacity=0;fillOpacity=0;rounded=1;absoluteArcSize=1;arcSize=9;fillColor=#ffffff;strokeWidth=0.8;lucidId=Mnk0bhsdD7cv;" vertex="1" parent="1">
          <mxGeometry x="1287" y="1272" width="60" height="48" as="geometry" />
        </mxCell>
        <mxCell id="h8Ty44yPj9Jnduj1fUJp-178" value="书格" style="html=1;overflow=block;blockSpacing=1;whiteSpace=wrap;fontSize=16.7;fontFamily=Liberation Serif;fontColor=#3a414a;spacing=3.8;strokeOpacity=0;fillOpacity=0;rounded=1;absoluteArcSize=1;arcSize=9;fillColor=#ffffff;strokeWidth=0.8;lucidId=Nnk0K7IZeUnC;" vertex="1" parent="1">
          <mxGeometry x="1370" y="1273" width="60" height="48" as="geometry" />
        </mxCell>
      </root>
    </mxGraphModel>
  </diagram>
</mxfile>
